{"glyphs":{"0":{"ha":840,"x_min":92,"x_max":749,"o":"m 92 452 q 119 688 92 585 q 220 854 147 791 q 307 902 256 886 q 421 918 358 918 q 553 895 495 918 q 650 829 612 872 q 708 730 685 789 q 740 600 731 670 q 749 452 749 538 q 740 302 749 366 q 709 179 730 237 q 649 76 686 116 q 556 12 613 36 q 421 -12 498 -12 q 289 11 348 -12 q 192 77 229 35 q 134 175 157 116 q 101 305 111 235 q 92 452 92 376 m 216 452 q 222 341 216 388 q 241 252 228 294 q 279 176 256 205 q 337 129 301 146 q 421 111 374 111 q 504 128 467 111 q 564 177 540 145 q 600 248 585 205 q 620 344 614 292 q 625 452 625 398 q 620 564 625 516 q 601 653 614 611 q 564 728 587 699 q 505 775 541 758 q 421 793 468 793 q 338 776 374 793 q 278 728 301 759 q 242 656 257 699 q 222 560 228 612 q 216 452 216 506 z "},"1":{"ha":464,"x_min":65,"x_max":330,"o":"m 205 0 l 205 749 l 85 745 l 65 844 l 330 916 l 330 0 l 205 0 z "},"2":{"ha":732,"x_min":65,"x_max":643,"o":"m 65 651 q 119 784 77 723 q 224 882 161 846 q 357 918 287 918 q 501 882 436 918 q 604 783 566 846 q 642 643 642 721 q 618 527 642 582 q 543 415 594 472 q 411 259 471 332 q 345 178 371 212 q 297 118 313 137 l 643 125 l 643 0 l 97 0 l 83 56 l 452 501 q 502 576 486 543 q 518 643 518 610 q 497 719 518 685 q 439 773 477 753 q 357 793 401 793 q 279 775 314 793 q 222 726 244 758 q 193 650 198 693 l 65 651 z "},"3":{"ha":743,"x_min":66,"x_max":662,"o":"m 176 231 q 243 149 199 181 q 339 113 287 117 l 338 113 q 434 130 389 110 q 507 186 480 149 q 534 265 534 221 q 510 345 534 307 q 446 405 486 383 q 359 424 404 427 l 257 417 l 257 538 l 359 545 q 445 571 412 548 q 485 635 477 593 q 488 667 488 648 q 471 735 488 707 q 426 778 454 764 q 349 795 393 795 q 265 774 304 795 q 199 713 227 753 l 113 772 q 218 880 151 839 q 361 920 286 920 q 496 886 435 920 q 593 793 558 852 q 625 675 625 737 q 616 612 625 642 q 511 489 593 536 q 587 437 552 473 q 642 355 622 401 q 662 260 662 307 q 661 244 662 248 q 608 108 654 170 q 486 15 561 47 q 355 -12 425 -12 q 258 3 305 -12 q 168 47 210 18 q 108 102 132 73 q 66 171 84 131 l 176 231 z "},"4":{"ha":822,"x_min":36,"x_max":762,"o":"m 509 0 l 509 186 l 36 186 l 539 907 l 632 907 l 632 304 l 762 304 l 762 186 l 632 186 l 632 0 l 509 0 m 515 298 l 515 675 l 256 298 l 515 298 z "},"5":{"ha":783,"x_min":66,"x_max":708,"o":"m 174 252 q 255 142 199 184 q 375 100 311 100 q 492 125 444 100 q 563 193 540 149 q 586 292 586 235 q 562 385 586 345 q 495 445 538 424 q 399 465 452 465 q 292 449 340 465 q 174 390 245 433 l 96 454 l 175 905 l 659 905 l 652 786 l 278 793 l 228 536 q 305 569 256 556 q 399 582 353 582 q 555 549 487 582 q 665 450 623 515 q 708 292 708 383 q 666 132 708 201 q 547 24 624 62 q 368 -14 469 -14 q 246 12 305 -14 q 140 85 187 37 q 66 193 94 132 l 174 252 z "},"6":{"ha":772,"x_min":92,"x_max":690,"o":"m 97 298 q 92 421 92 366 q 123 678 92 570 q 218 845 154 786 q 412 918 298 918 q 494 910 458 918 q 568 882 531 901 q 684 743 638 843 l 572 696 q 507 773 548 747 q 418 800 467 800 q 316 766 361 800 q 247 670 271 732 q 222 530 222 609 q 224 484 222 507 q 410 586 264 586 q 555 543 488 586 q 658 427 621 500 q 690 288 690 361 q 650 134 690 205 q 538 24 609 64 q 395 -12 473 -12 q 315 -1 354 -12 q 243 30 276 9 q 142 137 180 68 q 97 298 104 206 m 236 294 q 256 202 236 243 q 313 138 277 161 q 398 114 351 114 q 488 137 446 114 q 555 199 530 159 q 581 287 581 239 q 557 372 581 332 q 492 435 533 411 q 399 461 449 461 q 320 441 356 461 q 260 381 282 420 q 236 294 237 342 z "},"7":{"ha":736,"x_min":86,"x_max":713,"o":"m 713 907 l 269 0 l 103 0 l 501 783 l 86 783 l 86 907 l 713 907 z "},"8":{"ha":780,"x_min":78,"x_max":703,"o":"m 78 283 q 117 421 78 356 q 222 526 156 486 q 149 686 149 597 q 180 803 149 750 q 267 888 212 857 q 390 918 322 918 q 514 887 457 918 q 603 803 570 857 q 635 686 635 749 q 614 601 635 643 q 557 526 593 559 q 664 420 625 484 q 703 283 703 356 q 662 135 703 203 q 549 27 621 66 q 390 -12 477 -12 q 232 27 304 -12 q 119 134 160 66 q 78 283 78 201 m 203 283 q 227 196 203 235 q 295 134 252 157 q 390 111 337 111 q 485 134 441 111 q 553 197 528 157 q 578 283 578 237 q 553 370 578 330 q 485 435 528 410 q 390 458 441 458 l 380 458 q 291 433 332 457 q 227 370 250 410 q 203 283 203 330 m 307 769 q 272 693 272 738 q 287 639 272 664 q 327 599 301 614 q 383 582 353 583 l 395 582 q 453 598 427 583 q 495 639 479 614 q 510 693 510 664 q 494 747 510 722 q 451 785 479 771 q 390 800 424 800 q 307 769 340 800 z "},"9":{"ha":770,"x_min":81,"x_max":678,"o":"m 81 616 q 122 770 81 700 q 233 880 163 841 q 375 917 298 917 q 455 906 416 917 q 528 875 494 895 q 628 767 591 836 q 673 606 666 698 q 678 479 678 534 q 554 60 678 174 q 359 -14 474 -14 q 276 -5 313 -14 q 204 24 240 3 q 87 161 133 61 l 199 208 q 264 131 223 158 q 353 104 304 104 q 454 139 410 104 q 524 235 499 173 q 549 375 549 296 q 547 421 549 398 q 479 344 527 370 q 361 318 431 318 q 216 361 282 318 q 113 478 150 405 q 81 616 81 543 m 191 616 q 215 530 191 570 q 282 467 240 490 q 371 443 324 443 q 454 464 417 443 q 513 524 491 486 q 535 610 534 562 q 515 702 535 661 q 458 767 495 744 q 373 790 421 790 q 283 767 326 790 q 216 704 241 744 q 191 616 191 664 z "}," ":{"ha":344,"x_min":0,"x_max":0,"o":""},"!":{"ha":366,"x_min":92,"x_max":273,"o":"m 118 11 q 92 72 92 34 q 104 116 92 96 q 137 149 116 136 q 182 160 158 160 q 228 149 206 160 q 261 117 249 137 q 273 72 273 96 q 247 11 273 35 q 182 -14 220 -14 q 118 11 144 -14 m 233 257 l 135 257 l 121 957 l 245 957 l 233 257 z "},"\"":{"ha":493,"x_min":104,"x_max":389,"o":"m 203 957 l 203 557 l 104 557 l 104 957 l 203 957 m 389 957 l 389 557 l 290 557 l 290 957 l 389 957 z "},"#":{"ha":911,"x_min":50,"x_max":861,"o":"m 127 0 l 195 236 l 50 236 l 82 354 l 227 354 l 292 597 l 150 597 l 180 715 l 325 715 l 392 957 l 513 957 l 446 715 l 595 715 l 661 957 l 782 957 l 715 715 l 861 715 l 829 597 l 682 597 l 615 354 l 761 354 l 729 236 l 583 236 l 515 0 l 396 0 l 463 236 l 314 236 l 245 0 l 127 0 m 561 597 l 412 597 l 346 354 l 494 354 l 561 597 z "},"$":{"ha":780,"x_min":65,"x_max":722,"o":"m 195 277 q 223 194 195 233 q 297 131 250 155 q 400 107 345 107 q 496 125 454 107 q 563 176 538 143 q 593 248 587 208 q 593 261 593 251 q 550 361 593 321 q 431 418 507 401 l 307 449 q 74 699 74 508 q 110 827 74 769 q 210 922 146 886 q 350 965 273 958 l 350 1104 l 436 1104 l 436 964 q 570 917 512 954 q 660 821 628 880 q 692 688 692 762 l 562 688 q 539 769 562 734 q 475 825 517 804 q 382 844 433 844 q 293 826 334 844 q 227 774 252 807 q 203 700 203 741 q 339 567 203 601 l 464 536 q 656 437 590 504 q 722 273 722 370 q 720 236 722 258 q 674 115 711 169 q 576 27 637 60 q 436 -12 513 -7 l 436 -165 l 350 -165 l 350 -11 q 204 41 269 -1 q 102 145 139 82 q 65 277 65 208 l 195 277 z "},"%":{"ha":947,"x_min":53,"x_max":896,"o":"m 53 749 q 77 842 53 800 q 144 910 102 885 q 237 935 186 935 q 331 910 288 935 q 399 842 374 885 q 424 749 424 800 q 399 655 424 698 q 332 589 374 613 q 237 564 288 564 q 144 588 186 564 q 77 655 102 612 q 53 749 53 697 m 150 749 q 175 686 150 711 q 237 661 199 661 q 300 686 275 661 q 326 749 326 711 q 314 793 326 772 q 282 826 302 814 q 237 838 260 838 q 175 812 200 838 q 150 749 150 786 m 739 935 l 282 0 l 191 0 l 647 935 l 739 935 m 525 171 q 550 264 525 222 q 617 332 574 307 q 710 357 659 357 q 804 332 761 357 q 871 264 846 307 q 896 171 896 222 q 871 78 896 120 q 804 11 846 35 q 710 -14 761 -14 q 616 11 659 -14 q 549 78 574 35 q 525 171 525 120 m 623 171 q 648 108 623 133 q 710 83 673 83 q 773 109 747 83 q 799 171 799 134 q 787 215 799 195 q 755 248 775 236 q 710 260 733 260 q 648 234 673 260 q 623 171 623 208 z "},"&":{"ha":912,"x_min":77,"x_max":844,"o":"m 77 293 q 114 437 77 370 q 218 546 152 504 q 168 622 186 576 q 150 718 150 667 q 182 838 150 783 q 273 925 215 892 q 399 957 330 957 q 531 920 469 957 q 629 821 592 884 l 526 757 q 471 815 505 793 q 399 836 437 836 q 333 821 362 836 q 288 779 304 806 q 271 718 271 751 q 287 654 271 684 q 332 605 303 623 q 393 586 359 586 l 581 586 l 581 649 l 700 649 l 700 585 l 821 605 l 821 504 l 700 484 l 700 293 q 706 217 700 248 q 726 160 711 186 q 844 104 754 104 l 844 -12 q 712 15 770 -12 q 625 90 654 43 q 526 15 589 42 q 389 -12 463 -12 q 229 27 300 -12 q 117 138 157 67 q 77 293 77 208 m 197 293 q 221 199 197 241 q 289 133 245 157 q 389 109 333 109 q 485 131 441 109 q 553 195 528 154 q 581 285 578 234 l 581 484 l 390 484 q 294 457 338 484 q 223 387 250 431 q 197 293 197 343 z "},"'":{"ha":307,"x_min":104,"x_max":203,"o":"m 203 957 l 203 557 l 104 557 l 104 957 l 203 957 z "},"(":{"ha":504,"x_min":68,"x_max":449,"o":"m 115 -22 q 68 322 68 122 q 115 665 68 518 q 248 890 162 812 q 449 968 335 968 l 449 844 q 310 781 370 844 q 218 598 251 717 q 186 322 186 480 q 218 47 186 165 q 311 -136 251 -71 q 449 -200 370 -200 l 449 -323 q 248 -246 334 -323 q 115 -22 162 -169 z "},")":{"ha":504,"x_min":56,"x_max":436,"o":"m 56 -200 q 194 -136 135 -200 q 286 46 254 -73 q 318 322 318 165 q 286 598 318 479 q 195 781 254 716 q 56 844 135 844 l 56 968 q 256 889 170 968 q 389 665 342 811 q 436 322 436 519 q 389 -20 436 126 q 256 -245 342 -166 q 56 -323 170 -323 l 56 -200 z "},"*":{"ha":648,"x_min":128,"x_max":502,"o":"m 128 716 l 149 728 l 192 752 l 237 775 l 130 840 l 166 905 q 275 842 243 859 l 275 969 l 356 969 l 355 842 l 465 903 l 502 839 l 390 774 l 499 712 l 458 644 l 351 707 l 350 586 l 275 586 l 275 707 l 169 647 l 128 716 z "},"+":{"ha":720,"x_min":75,"x_max":646,"o":"m 300 77 l 300 302 l 75 302 l 75 424 l 300 424 l 300 648 l 421 648 l 421 424 l 646 424 l 646 302 l 421 302 l 421 77 l 300 77 z "},",":{"ha":357,"x_min":68,"x_max":254,"o":"m 68 -54 q 102 16 92 -9 q 115 58 112 37 q 119 113 119 78 l 118 160 l 252 160 q 254 112 254 134 q 207 -39 254 11 q 146 -94 182 -65 l 68 -54 z "},"-":{"ha":675,"x_min":96,"x_max":579,"o":"m 579 385 l 579 264 l 96 264 l 96 385 l 579 385 z "},".":{"ha":369,"x_min":94,"x_max":277,"o":"m 121 11 q 94 72 94 35 q 106 116 94 96 q 140 149 119 136 q 184 160 161 160 q 230 149 209 160 q 264 117 252 137 q 277 72 277 96 q 250 11 277 35 q 184 -14 223 -14 q 121 11 147 -14 z "},"/":{"ha":696,"x_min":43,"x_max":653,"o":"m 653 957 l 180 0 l 43 0 l 515 957 l 653 957 z "},":":{"ha":373,"x_min":96,"x_max":278,"o":"m 123 11 q 96 72 96 34 q 108 116 96 96 q 141 149 120 136 q 187 160 163 160 q 233 148 212 160 q 266 117 254 136 q 278 72 278 96 q 266 28 278 48 q 233 -4 254 7 q 187 -16 211 -16 q 123 11 151 -16 m 123 514 q 96 576 96 539 q 122 638 96 613 q 187 663 149 663 q 233 651 212 663 q 266 620 254 640 q 278 576 278 600 q 266 531 278 552 q 233 498 254 510 q 187 486 212 486 q 123 514 152 486 z "},";":{"ha":394,"x_min":68,"x_max":297,"o":"m 142 514 q 115 576 115 540 q 141 638 115 614 q 205 663 167 663 q 271 638 244 663 q 297 576 297 613 q 270 514 297 539 q 205 489 243 489 q 142 514 167 489 m 68 -54 q 111 16 100 -9 q 121 77 121 42 l 119 113 q 118 160 118 150 l 252 160 q 235 37 246 82 q 203 -36 224 -8 q 146 -94 183 -65 l 68 -54 z "},"<":{"ha":863,"x_min":65,"x_max":770,"o":"m 770 176 l 770 45 l 65 313 l 65 433 l 770 703 l 770 568 l 240 374 l 770 176 z "},"=":{"ha":844,"x_min":103,"x_max":742,"o":"m 742 273 l 742 153 l 103 153 l 103 273 l 742 273 m 742 542 l 742 421 l 103 421 l 103 542 l 742 542 z "},">":{"ha":862,"x_min":94,"x_max":798,"o":"m 798 433 l 798 313 l 94 43 l 94 176 l 623 374 l 94 568 l 94 703 l 798 433 z "},"?":{"ha":671,"x_min":61,"x_max":604,"o":"m 61 768 q 116 863 78 819 q 205 938 153 907 q 269 963 232 954 q 345 971 305 971 q 445 954 397 971 q 531 904 493 937 q 586 826 567 873 q 604 722 604 780 q 547 548 604 611 l 519 520 q 479 481 503 506 l 469 472 l 447 450 q 409 411 419 424 q 392 376 399 397 q 378 295 378 346 l 378 239 l 256 239 l 256 323 q 271 415 256 374 q 311 483 285 456 q 374 542 349 522 q 433 597 412 573 q 464 648 454 622 q 475 712 475 677 q 455 785 475 751 q 401 839 435 819 q 330 858 370 858 q 228 822 271 858 q 161 720 184 785 l 61 768 m 241 73 q 264 123 241 103 q 319 144 287 144 q 374 123 352 144 q 396 73 396 103 q 375 22 396 42 q 321 1 355 1 q 263 22 286 1 q 241 73 241 42 z "},"@":{"ha":1347,"x_min":94,"x_max":1196,"o":"m 94 398 q 128 591 94 499 q 226 758 162 684 q 410 898 299 842 q 669 953 521 953 q 936 891 815 953 q 1126 718 1057 829 q 1196 474 1196 610 q 1158 281 1196 371 q 1057 140 1120 192 q 920 88 992 88 q 849 116 880 88 q 799 193 817 144 q 699 111 745 138 q 608 85 654 85 q 473 122 533 85 q 377 227 412 159 q 342 376 342 293 q 381 537 342 465 q 487 650 419 609 q 637 692 554 692 q 826 602 754 692 l 822 678 l 899 678 l 897 314 q 894 273 897 293 l 892 241 q 935 189 892 189 q 1011 228 974 189 q 1071 332 1048 267 q 1093 466 1093 396 q 974 746 1093 635 q 838 829 914 801 q 679 857 762 857 q 552 841 614 857 q 439 795 490 825 q 274 630 334 734 q 214 399 214 525 q 261 189 214 294 q 426 10 319 73 q 684 -53 532 -53 q 1025 30 844 -53 l 1035 35 l 1071 -64 l 1063 -69 q 685 -157 882 -157 q 357 -78 493 -157 q 153 144 222 1 q 94 398 94 267 m 486 370 q 502 285 486 322 q 548 226 518 248 q 615 205 577 205 q 705 233 663 205 q 773 309 747 260 q 799 410 799 357 q 779 487 799 452 q 723 541 759 522 q 646 561 687 561 q 564 536 600 561 q 507 468 528 512 q 486 370 486 426 z "},"A":{"ha":895,"x_min":16,"x_max":880,"o":"m 245 236 l 159 0 l 16 0 l 379 957 l 525 957 l 880 0 l 738 0 l 652 236 l 245 236 m 607 359 l 449 785 l 290 359 l 607 359 z "},"B":{"ha":872,"x_min":124,"x_max":803,"o":"m 124 0 l 131 957 l 478 957 q 620 927 558 957 q 717 841 682 897 q 751 710 751 785 q 723 584 751 636 q 637 510 695 532 q 724 465 686 500 q 783 378 762 429 q 803 277 803 329 q 769 137 803 199 q 673 39 736 75 q 522 0 608 0 l 124 0 m 261 121 l 517 121 q 596 142 561 121 q 650 200 631 163 q 669 278 669 235 q 649 359 669 321 q 593 422 629 397 q 513 446 557 446 l 261 446 l 261 121 m 261 559 l 492 559 q 559 578 530 559 q 604 631 589 597 q 619 705 619 663 q 599 775 619 745 q 543 822 579 806 q 465 838 507 838 l 261 838 l 261 559 z "},"C":{"ha":948,"x_min":68,"x_max":916,"o":"m 68 476 q 97 645 68 564 q 180 793 126 726 q 336 918 243 869 q 553 968 430 968 q 730 924 650 968 q 886 792 810 880 l 761 732 q 692 799 717 779 q 635 831 667 820 q 553 843 601 843 q 373 794 455 843 q 244 661 292 746 q 197 476 197 576 q 244 292 197 376 q 373 160 291 208 q 553 111 454 111 q 695 137 634 111 q 804 220 756 163 l 916 151 q 755 30 850 73 q 553 -14 661 -14 q 366 24 456 -14 q 209 130 275 62 q 105 288 142 197 q 68 476 68 379 z "},"D":{"ha":1005,"x_min":131,"x_max":932,"o":"m 131 0 l 131 957 l 467 957 q 602 940 534 957 q 727 892 670 923 q 831 804 787 859 q 903 665 875 749 q 932 476 932 578 q 903 289 932 375 q 819 137 873 202 q 515 0 702 0 l 131 0 m 260 121 l 515 121 q 636 146 584 121 q 727 223 688 172 q 783 337 764 273 q 803 476 803 401 q 769 661 803 581 q 667 788 734 740 q 578 823 635 810 q 467 836 522 836 l 260 836 l 260 121 z "},"E":{"ha":785,"x_min":131,"x_max":711,"o":"m 711 121 l 711 0 l 131 0 l 131 957 l 697 957 l 697 836 l 260 836 l 260 530 l 628 530 l 628 410 l 260 410 l 260 121 l 711 121 z "},"F":{"ha":730,"x_min":131,"x_max":689,"o":"m 260 423 l 260 0 l 131 0 l 131 957 l 689 957 l 689 836 l 260 836 l 260 544 l 593 544 l 593 423 l 260 423 z "},"G":{"ha":1050,"x_min":68,"x_max":1004,"o":"m 68 476 q 97 646 68 564 q 179 793 125 727 q 334 918 241 868 q 551 968 428 968 q 726 935 643 968 q 875 842 810 903 l 782 755 q 551 844 681 844 q 373 795 454 844 q 244 661 291 747 q 197 476 197 577 q 244 292 197 376 q 372 159 290 208 q 551 110 453 110 q 708 140 639 110 q 819 228 777 171 q 864 361 860 284 l 585 328 l 585 467 l 1004 467 q 887 108 1004 229 q 551 -14 770 -14 q 363 24 454 -14 q 208 130 273 62 q 105 288 142 197 q 68 476 68 378 z "},"H":{"ha":983,"x_min":131,"x_max":852,"o":"m 260 430 l 260 0 l 131 0 l 131 957 l 260 957 l 260 555 l 722 555 l 722 957 l 852 957 l 852 0 l 722 0 l 722 430 l 260 430 z "},"I":{"ha":390,"x_min":131,"x_max":267,"o":"m 267 957 l 260 0 l 138 0 l 131 957 l 267 957 z "},"J":{"ha":390,"x_min":9,"x_max":261,"o":"m 9 -229 l 9 -229 q 65 -218 39 -229 q 104 -193 91 -208 q 123 -157 115 -180 q 132 -113 130 -135 q 133 -79 133 -85 l 133 -67 l 126 956 l 254 956 l 260 -68 q 200 -276 261 -205 q 20 -347 138 -347 l 16 -347 l 9 -229 z "},"K":{"ha":802,"x_min":131,"x_max":799,"o":"m 260 368 l 260 0 l 131 0 l 131 957 l 260 957 l 260 503 l 590 957 l 736 957 l 368 439 l 799 0 l 625 0 l 260 368 z "},"L":{"ha":687,"x_min":131,"x_max":656,"o":"m 656 121 l 656 0 l 138 0 l 131 957 l 260 957 l 267 121 l 656 121 z "},"M":{"ha":1297,"x_min":77,"x_max":1221,"o":"m 292 720 l 204 0 l 77 0 l 193 957 l 311 957 l 648 336 l 986 957 l 1104 957 l 1221 0 l 1093 0 l 1006 720 l 707 187 l 593 187 l 292 720 z "},"N":{"ha":949,"x_min":131,"x_max":826,"o":"m 267 721 l 260 0 l 131 0 l 138 957 l 265 957 l 697 241 l 690 957 l 819 957 l 826 0 l 703 0 l 267 721 z "},"O":{"ha":1105,"x_min":75,"x_max":1031,"o":"m 75 476 q 136 725 75 612 q 307 902 197 837 q 551 968 417 968 q 720 938 640 968 q 867 854 801 909 q 966 738 928 802 q 1018 609 1004 674 q 1031 476 1031 549 q 996 284 1031 375 q 897 130 962 194 q 740 24 831 62 q 551 -14 650 -14 q 363 24 454 -14 q 208 130 273 62 q 109 285 144 195 q 75 476 75 376 m 244 661 q 214 568 223 624 q 204 449 204 513 q 246 281 204 352 q 372 160 288 210 q 551 111 453 111 q 732 159 650 111 q 861 292 814 208 q 892 367 884 335 q 900 449 900 399 q 880 585 900 517 q 823 707 861 652 q 713 805 782 768 q 551 843 644 843 q 373 794 454 843 q 244 661 291 746 z "},"P":{"ha":842,"x_min":131,"x_max":798,"o":"m 138 0 l 131 957 l 486 957 q 631 931 562 957 q 732 863 700 905 q 798 657 798 777 q 732 452 798 538 q 633 384 699 409 q 492 358 568 358 l 261 358 l 268 0 l 138 0 m 261 479 l 484 479 q 554 492 519 479 q 616 525 589 504 q 668 657 668 567 q 601 809 668 760 q 550 829 585 821 q 484 836 516 836 l 261 836 l 261 479 z "},"Q":{"ha":1105,"x_min":68,"x_max":1038,"o":"m 68 476 q 97 646 68 564 q 179 793 125 727 q 334 918 241 868 q 551 968 428 968 q 720 938 640 968 q 867 854 801 909 q 989 695 941 791 q 1038 476 1038 600 q 977 237 1038 348 q 810 60 916 127 l 923 -105 l 796 -140 l 703 9 q 551 -14 634 -14 q 363 24 454 -14 q 208 130 273 62 q 105 288 142 197 q 68 476 68 378 m 197 476 q 240 300 197 381 q 358 171 283 220 q 526 117 434 121 l 560 115 q 632 122 602 115 l 514 315 l 633 343 l 742 168 q 863 298 819 217 q 907 476 907 379 q 860 660 907 576 q 732 794 814 745 q 551 843 650 843 q 373 794 454 843 q 244 661 291 746 q 197 476 197 576 z "},"R":{"ha":859,"x_min":131,"x_max":787,"o":"m 131 0 l 131 957 l 498 957 q 626 932 569 957 q 716 863 683 907 q 782 657 782 777 q 724 463 782 545 q 635 396 697 424 q 505 363 574 369 l 787 0 l 631 0 l 356 358 l 261 358 l 261 0 l 131 0 m 261 479 l 489 479 q 613 528 578 479 q 640 586 631 553 q 648 657 648 620 q 583 809 648 760 q 494 836 548 836 l 261 836 l 261 479 z "},"S":{"ha":795,"x_min":72,"x_max":729,"o":"m 188 304 q 220 212 189 259 q 301 132 252 164 q 407 100 351 100 q 503 120 460 100 q 570 174 545 140 q 600 248 594 208 q 601 261 601 251 q 589 319 601 292 q 554 364 577 346 q 437 418 508 401 l 314 449 q 81 699 81 508 q 123 837 81 774 q 238 935 165 900 q 390 968 307 968 q 547 935 479 968 q 654 840 616 901 q 692 694 692 777 l 570 674 q 546 762 570 721 q 481 827 523 802 q 389 851 439 851 q 299 831 340 851 q 234 777 258 811 q 210 700 210 741 q 346 567 210 601 l 471 536 q 665 435 600 503 q 729 275 729 368 q 726 236 729 252 q 675 107 717 163 q 565 19 633 51 q 407 -14 496 -14 q 274 10 338 -14 q 165 75 210 34 q 97 169 121 116 q 72 277 72 222 l 188 304 z "},"T":{"ha":789,"x_min":39,"x_max":750,"o":"m 329 0 l 322 835 l 45 835 l 39 957 l 743 957 l 750 835 l 453 835 l 460 0 l 329 0 z "},"U":{"ha":941,"x_min":121,"x_max":821,"o":"m 121 957 l 252 957 l 252 363 q 281 241 252 299 q 361 147 311 183 q 471 111 412 111 q 580 147 529 111 q 661 241 631 182 q 690 363 690 299 l 690 957 l 821 957 l 821 329 q 793 189 821 254 q 717 79 766 124 q 604 11 669 35 q 471 -14 540 -14 q 338 11 401 -14 q 225 79 274 35 q 148 190 176 125 q 121 329 121 255 l 121 957 z "},"V":{"ha":780,"x_min":39,"x_max":741,"o":"m 453 0 l 329 0 l 39 957 l 174 957 l 390 252 l 607 957 l 741 957 l 453 0 z "},"W":{"ha":1251,"x_min":21,"x_max":1231,"o":"m 457 0 l 345 0 l 21 957 l 160 957 l 400 208 l 576 787 l 675 787 l 851 208 l 1092 957 l 1231 957 l 907 0 l 794 0 l 625 557 l 457 0 z "},"X":{"ha":854,"x_min":16,"x_max":839,"o":"m 427 427 l 170 0 l 16 0 l 349 528 l 52 957 l 207 957 l 427 633 l 647 957 l 803 957 l 504 528 l 839 0 l 684 0 l 427 427 z "},"Y":{"ha":872,"x_min":7,"x_max":869,"o":"m 370 0 l 376 460 l 7 957 l 161 954 l 443 590 l 714 954 l 869 957 l 509 460 l 503 0 l 370 0 z "},"Z":{"ha":795,"x_min":58,"x_max":728,"o":"m 728 122 l 728 0 l 58 0 l 58 113 l 557 828 l 71 828 l 71 950 l 721 950 l 721 831 l 233 122 l 728 122 z "},"[":{"ha":454,"x_min":117,"x_max":403,"o":"m 403 -200 l 396 -315 l 117 -315 l 117 957 l 396 957 l 403 842 l 248 842 l 248 -200 l 403 -200 z "},"\\":{"ha":696,"x_min":43,"x_max":660,"o":"m 660 0 l 522 0 l 43 957 l 180 957 l 660 0 z "},"]":{"ha":454,"x_min":52,"x_max":338,"o":"m 338 -315 l 58 -315 l 52 -200 l 205 -200 l 205 842 l 52 842 l 58 957 l 338 957 l 338 -315 z "},"_":{"ha":970,"x_min":96,"x_max":882,"o":"m 875 -151 l 96 -151 l 102 -39 l 882 -39 l 875 -151 z "},"`":{"ha":711,"x_min":179,"x_max":458,"o":"m 458 770 l 338 770 l 179 983 l 330 983 l 458 770 z "},"a":{"ha":850,"x_min":62,"x_max":745,"o":"m 62 325 q 107 502 62 422 q 228 622 151 581 q 392 663 302 663 q 528 633 466 663 q 619 551 589 603 l 619 655 l 745 655 l 745 0 l 640 0 l 619 100 q 527 17 589 47 q 392 -14 465 -14 q 226 30 301 -14 q 106 150 151 73 q 62 325 62 228 m 192 326 q 221 216 192 266 q 301 138 250 167 q 410 110 351 110 q 517 137 469 110 q 591 212 564 163 q 618 326 618 261 q 587 440 618 389 q 505 516 556 491 q 458 534 481 528 q 410 539 436 539 q 300 512 350 539 q 221 437 250 485 q 192 326 192 389 z "},"b":{"ha":850,"x_min":106,"x_max":787,"o":"m 106 0 l 106 1002 l 232 1002 l 232 558 q 319 632 260 608 q 460 656 378 656 q 627 617 553 656 q 743 503 700 578 q 787 325 787 425 q 743 148 787 227 q 622 28 699 69 q 549 1 589 9 q 458 -7 510 -7 q 322 21 383 -7 q 232 100 262 50 l 232 0 l 106 0 m 233 326 q 263 213 233 262 q 345 137 293 164 q 456 110 395 110 q 563 138 515 110 q 638 215 610 165 q 665 326 665 264 q 638 437 665 388 q 563 513 611 486 q 456 539 515 539 q 373 525 414 539 q 302 486 332 511 q 252 416 270 458 q 233 326 233 374 z "},"c":{"ha":711,"x_min":62,"x_max":657,"o":"m 110 148 q 62 326 62 226 q 109 502 62 423 q 235 622 155 581 q 406 663 313 663 q 545 635 479 663 q 656 558 610 608 l 566 471 q 487 520 536 502 q 392 539 439 539 q 285 513 332 539 q 213 437 239 486 q 187 326 187 388 q 213 214 187 263 q 286 136 239 164 q 392 109 334 109 q 488 128 439 109 q 566 179 536 147 l 657 92 q 546 14 611 41 q 406 -14 480 -14 q 234 28 311 -14 q 110 148 157 71 z "},"d":{"ha":850,"x_min":62,"x_max":745,"o":"m 62 325 q 106 502 62 422 q 226 622 150 581 q 389 663 299 663 q 526 633 465 663 q 618 551 587 604 l 618 1002 l 745 1002 l 745 0 l 631 0 l 618 100 q 525 17 587 48 q 390 -14 463 -14 q 226 28 300 -14 q 108 147 152 70 q 62 325 62 225 m 185 326 q 214 216 185 266 q 293 138 243 167 q 401 110 343 110 q 509 137 461 110 q 583 212 556 163 q 610 326 610 261 q 582 441 610 391 q 504 516 553 492 q 401 539 458 539 q 292 512 342 539 q 214 437 243 485 q 185 326 185 389 z "},"e":{"ha":772,"x_min":62,"x_max":717,"o":"m 62 326 q 105 500 62 423 q 225 621 149 577 q 395 663 301 663 q 561 621 488 663 q 675 503 634 579 q 717 326 717 427 q 713 302 717 311 q 709 290 709 294 l 189 277 q 225 183 197 224 q 299 121 254 143 q 399 100 345 100 q 473 105 444 100 q 524 127 503 111 q 564 173 546 141 q 642 167 581 167 l 664 167 q 693 165 689 167 q 576 38 652 83 q 401 -7 499 -7 q 230 35 308 -7 q 108 153 153 77 q 62 326 62 227 m 591 375 q 556 467 584 428 q 484 528 528 507 q 388 549 441 549 q 257 503 307 549 q 196 375 208 458 l 591 375 z "},"f":{"ha":476,"x_min":37,"x_max":475,"o":"m 37 522 l 37 628 l 163 628 l 163 714 q 188 866 163 801 q 260 966 212 930 q 380 1003 309 1003 q 411 1002 397 1003 l 475 995 l 462 873 l 411 880 l 395 882 q 345 867 367 882 q 311 828 323 852 q 295 781 299 805 q 290 723 290 756 l 290 714 l 290 628 l 440 628 l 433 522 l 290 522 l 283 0 l 156 0 l 163 522 l 37 522 z "},"g":{"ha":848,"x_min":62,"x_max":751,"o":"m 62 322 q 107 499 62 420 q 228 621 151 578 q 392 663 302 663 q 527 631 465 663 q 619 547 589 600 l 626 648 l 751 648 l 745 98 q 654 -219 742 -114 q 390 -323 566 -323 q 220 -277 298 -323 q 97 -149 143 -231 q 114 -137 98 -148 q 152 -120 129 -127 q 203 -100 188 -109 q 280 -177 229 -149 q 390 -204 330 -204 q 627 83 627 -204 q 627 92 627 90 q 626 99 626 94 q 534 17 600 47 q 392 -14 469 -14 q 227 27 300 -14 q 108 145 153 68 q 62 322 62 221 m 185 323 q 214 213 185 261 q 293 137 243 164 q 403 110 342 110 q 481 124 443 110 q 550 165 519 138 q 595 232 580 191 q 611 323 611 273 q 585 438 611 389 q 511 513 558 487 q 403 539 463 539 q 294 511 344 539 q 215 434 245 483 q 185 323 185 384 z "},"h":{"ha":805,"x_min":106,"x_max":711,"o":"m 106 0 l 106 1002 l 232 995 l 232 551 q 283 610 248 585 q 361 650 317 636 q 446 663 403 663 q 588 628 528 663 q 680 529 649 594 q 708 375 711 465 l 694 0 l 568 0 l 582 367 q 566 460 584 419 q 515 524 549 500 q 436 546 481 546 q 367 533 403 546 q 298 497 331 519 q 250 437 267 476 q 232 350 233 398 l 225 0 l 106 0 z "},"i":{"ha":336,"x_min":81,"x_max":256,"o":"m 106 782 q 81 840 81 806 q 106 899 81 875 q 168 922 132 922 q 230 899 205 922 q 256 840 256 875 q 230 782 256 806 q 168 758 205 758 q 106 782 132 758 m 224 648 l 106 648 l 106 0 l 231 0 l 224 648 z "},"j":{"ha":338,"x_min":-12,"x_max":257,"o":"m -12 -200 l -11 -200 q 44 -190 18 -200 q 83 -165 71 -180 q 102 -129 95 -151 q 111 -84 110 -106 q 113 -51 113 -57 l 113 -39 l 106 648 l 233 648 l 240 -40 q 180 -248 241 -177 q 0 -318 119 -318 l -5 -318 l -12 -200 m 108 782 q 82 840 82 806 q 107 899 82 875 q 170 922 133 922 q 232 899 206 922 q 257 840 257 875 q 232 782 257 806 q 170 758 206 758 q 108 782 134 758 z "},"k":{"ha":697,"x_min":106,"x_max":693,"o":"m 231 296 l 231 0 l 106 0 l 106 981 l 231 975 l 231 402 l 454 648 l 627 648 l 349 348 l 693 0 l 526 0 l 231 296 z "},"l":{"ha":337,"x_min":106,"x_max":232,"o":"m 232 994 l 232 0 l 106 0 l 106 1002 l 232 994 z "},"m":{"ha":1223,"x_min":106,"x_max":1128,"o":"m 106 0 l 106 648 l 225 648 l 232 551 q 305 626 254 596 q 411 660 356 656 q 430 661 415 661 q 482 656 460 661 q 652 529 605 637 q 876 663 721 663 q 1014 629 957 663 q 1099 530 1070 595 q 1126 375 1128 467 l 1120 0 l 994 0 l 1000 367 q 983 458 1001 420 q 931 518 966 497 q 851 539 897 539 l 849 539 q 761 516 799 539 q 701 449 723 492 q 679 350 680 405 l 672 0 l 546 0 l 553 368 q 536 459 553 420 q 488 519 519 498 q 412 539 455 539 q 287 490 334 539 q 239 350 241 441 l 232 0 l 106 0 z "},"n":{"ha":782,"x_min":106,"x_max":687,"o":"m 106 0 l 106 648 l 225 648 l 232 551 q 435 642 276 642 q 568 605 510 642 q 657 504 626 567 q 685 375 687 441 l 674 -1 l 551 0 l 558 367 q 525 490 559 448 q 422 532 490 532 q 346 524 378 532 q 290 496 313 516 q 242 433 260 472 q 225 350 224 395 l 232 0 l 106 0 z "},"o":{"ha":804,"x_min":69,"x_max":735,"o":"m 109 148 q 78 227 87 184 q 69 326 69 270 q 112 504 69 426 q 232 622 155 581 q 401 663 308 663 q 572 622 496 663 q 695 504 649 581 q 726 425 717 468 q 735 326 735 382 q 692 148 735 227 q 571 28 648 69 q 401 -14 495 -14 q 231 28 308 -14 q 109 148 154 71 m 187 319 q 215 207 187 256 q 293 130 243 157 q 401 102 342 102 q 510 130 461 102 q 587 207 559 157 q 615 319 615 257 q 587 430 615 381 q 510 506 559 479 q 401 532 461 532 q 293 506 342 532 q 216 431 243 479 q 187 319 187 382 z "},"p":{"ha":846,"x_min":106,"x_max":783,"o":"m 106 -315 l 106 648 l 225 648 l 232 547 q 325 631 262 600 q 458 663 387 663 q 623 619 549 663 q 741 498 697 576 q 783 322 783 420 q 740 146 783 224 q 621 27 696 68 q 458 -14 548 -14 q 327 15 385 -14 q 239 97 269 44 l 238 -315 l 106 -315 m 233 314 q 262 203 233 252 q 340 129 290 155 q 446 103 389 103 q 555 130 505 103 q 633 205 604 157 q 663 314 663 252 q 633 427 663 376 q 554 509 604 479 q 446 539 504 539 q 338 510 387 539 q 262 431 290 481 q 233 314 233 379 z "},"q":{"ha":846,"x_min":62,"x_max":741,"o":"m 62 322 q 105 493 62 418 q 222 609 147 568 q 387 649 297 649 q 525 623 465 649 q 614 547 586 597 l 621 648 l 741 648 l 741 -315 l 614 -315 l 614 97 q 524 16 585 45 q 387 -14 462 -14 q 224 27 296 -14 q 107 145 151 68 q 62 322 62 222 m 192 321 q 219 211 192 259 q 294 136 245 163 q 400 110 340 110 q 504 134 457 110 q 582 205 550 158 q 621 321 621 266 q 591 435 621 385 q 511 512 562 485 q 400 539 461 539 q 294 511 341 539 q 219 433 246 484 q 192 321 192 384 z "},"r":{"ha":548,"x_min":106,"x_max":525,"o":"m 106 0 l 106 648 l 225 648 l 232 503 q 299 617 254 581 q 412 654 344 654 q 525 637 500 654 l 505 526 q 466 539 486 536 q 410 542 445 542 q 306 502 351 542 q 243 392 262 461 q 234 333 236 364 q 232 236 232 302 l 232 0 l 106 0 z "},"s":{"ha":610,"x_min":65,"x_max":551,"o":"m 174 195 q 191 152 177 172 q 227 121 205 132 q 265 103 247 109 q 307 98 283 98 q 329 98 326 98 q 402 123 376 102 q 428 178 428 144 q 405 233 428 210 q 342 265 381 256 l 253 286 q 120 355 163 310 q 78 471 78 401 l 79 497 q 115 581 83 543 q 197 641 146 618 q 304 663 248 663 q 454 621 393 663 q 501 563 484 602 q 522 473 518 525 l 408 479 q 378 533 404 514 q 314 553 353 553 q 247 536 277 553 q 210 494 216 519 q 205 461 205 480 q 211 443 205 450 q 288 393 226 411 l 383 370 q 551 180 551 328 q 518 80 551 124 q 427 11 486 35 q 300 -14 370 -14 q 184 11 237 -14 q 97 82 132 35 q 74 132 81 103 q 65 201 66 161 l 174 195 z "},"t":{"ha":455,"x_min":37,"x_max":418,"o":"m 147 0 l 147 549 l 37 549 l 37 648 l 147 648 l 147 893 l 274 893 l 274 648 l 418 648 l 418 549 l 274 549 l 274 0 l 147 0 z "},"u":{"ha":780,"x_min":97,"x_max":675,"o":"m 97 648 l 224 648 l 224 282 q 241 188 224 228 q 290 125 258 147 q 366 103 322 103 q 491 152 431 103 q 533 212 518 174 q 549 298 549 250 l 549 648 l 675 648 l 675 0 l 555 0 l 549 97 q 468 16 524 46 q 347 -14 412 -14 q 162 60 227 -14 q 97 268 97 134 l 97 273 l 97 648 z "},"v":{"ha":708,"x_min":24,"x_max":685,"o":"m 415 0 l 293 0 l 24 648 l 157 648 l 354 182 l 550 648 l 685 648 l 414 0 l 415 0 z "},"w":{"ha":1097,"x_min":26,"x_max":1068,"o":"m 376 0 l 273 0 l 26 648 l 161 642 l 323 195 l 486 648 l 608 648 l 771 195 l 933 642 l 1068 648 l 828 0 l 724 0 l 547 456 l 376 0 z "},"x":{"ha":694,"x_min":17,"x_max":677,"o":"m 347 252 l 165 7 l 17 0 l 273 355 l 62 648 l 214 642 l 347 458 l 482 642 l 633 648 l 421 355 l 677 0 l 528 7 l 347 252 z "},"y":{"ha":707,"x_min":25,"x_max":684,"o":"m 149 -315 l 298 47 l 25 648 l 160 642 l 361 179 l 549 642 l 684 648 l 281 -315 l 149 -315 z "},"z":{"ha":697,"x_min":58,"x_max":629,"o":"m 623 121 l 629 0 l 58 0 l 58 104 l 451 528 l 87 528 l 81 648 l 629 648 l 629 545 l 229 121 l 623 121 z "},"{":{"ha":555,"x_min":54,"x_max":501,"o":"m 54 368 q 95 381 75 368 q 127 415 115 394 q 139 453 139 435 l 139 697 q 174 838 139 776 q 273 934 210 899 q 412 968 335 968 l 501 968 l 501 865 l 408 859 q 258 731 258 847 l 258 453 q 240 377 258 412 q 191 325 221 341 q 239 272 219 309 q 258 199 258 235 l 258 -77 q 298 -169 258 -138 q 408 -205 338 -201 l 501 -212 l 501 -315 l 412 -315 q 273 -281 336 -315 q 175 -184 211 -247 q 139 -43 139 -122 l 139 199 q 127 237 139 217 q 96 270 115 257 q 54 283 77 283 l 54 368 z "},"|":{"ha":319,"x_min":117,"x_max":203,"o":"m 203 1104 l 203 -159 l 117 -165 l 117 1097 l 203 1104 z "},"}":{"ha":555,"x_min":54,"x_max":501,"o":"m 54 -212 l 147 -205 q 257 -166 216 -201 q 297 -70 297 -132 l 297 199 q 317 272 297 235 q 366 325 337 309 q 316 377 335 341 q 297 453 297 412 l 297 724 q 257 820 297 785 q 147 859 216 854 l 54 865 l 54 968 l 143 968 q 283 934 220 968 q 381 838 346 900 q 416 697 416 777 l 416 453 q 428 415 416 435 q 460 382 440 395 q 501 368 479 368 l 501 283 q 460 270 480 283 q 429 237 441 257 q 416 199 416 218 l 416 -43 q 381 -184 416 -122 q 282 -281 345 -246 q 143 -315 220 -315 l 54 -315 l 54 -212 z "}}}
